<svg xmlns="http://www.w3.org/2000/svg" viewBox="0 0 96 96" id="drug-store">
  <g>
    <path d="M49.56 39.41H79.68a1 1 0 000-2H49.56a1 1 0 000 2zM39.23 39.41h4.08a1 1 0 000-2H39.23a1 1 0 100 2zM13.28 39.41H32.64a1 1 0 000-2H13.28a1 1 0 000 2zM51.06 7.92H66a1 1 0 000-2h-15a1 1 0 000 2zM51.06 13.13H66a1 1 0 000-2h-15a1 1 0 000 2zM51.06 23.62h4.62a1 1 0 000-2H51.06a1 1 0 000 2zM24 85.91H40.1a1 1 0 001-1V56.44a1 1 0 00-1-1H24a1 1 0 00-1 1V84.91A1 1 0 0024 85.91zm1-2V74.13H39.1v9.78zm0-14H39.1v2.17H25zM39.1 57.44V68H25V57.44zM77.17 51.27H50.84a1 1 0 00-1 1V74a1 1 0 001 1H77.17a1 1 0 001-1V52.27A1 1 0 0077.17 51.27zm-1 2v15H51.84v-15zm0 19.73H51.84V70.3H76.17z"></path>
    <path d="M89.53,41.32c0-1.64.11-3.13-1.17-4.88l-8.71-12.1a6.59,6.59,0,0,0-5.32-2.72h-.85V3.25A3.26,3.26,0,0,0,70.23,0H25.77a3.26,3.26,0,0,0-3.25,3.25V21.62h-.85a6.57,6.57,0,0,0-5.32,2.73L7.64,36.43c-1.3,1.79-1.17,3.37-1.17,4.89A5.74,5.74,0,0,0,11.32,47v41.1H7.47a1,1,0,0,0-1,1V95a1,1,0,0,0,1,1H88.53a1,1,0,0,0,1-1V89.08a1,1,0,0,0-1-1H84.68V47A5.74,5.74,0,0,0,89.53,41.32Zm-65-38.07A1.25,1.25,0,0,1,25.77,2H70.23a1.25,1.25,0,0,1,1.25,1.25V25.83a1.25,1.25,0,0,1-1.25,1.25H25.77a1.25,1.25,0,0,1-1.25-1.25Zm-16,38.07c0-1.41-.12-2.46.79-3.72L18,25.52a4.58,4.58,0,0,1,3.7-1.9h.85v2.21a3.26,3.26,0,0,0,3.25,3.25H70.23a3.26,3.26,0,0,0,3.25-3.25V23.62h.85A4.59,4.59,0,0,1,78,25.51l8.71,12.1c.91,1.24.79,2.32.79,3.71a3.73,3.73,0,0,1-3.73,3.73h-.68A3.71,3.71,0,0,1,80,43.34a1.91,1.91,0,0,0-3.19,0,3.71,3.71,0,0,1-3.13,1.71H73a3.73,3.73,0,0,1-3.14-1.72,1.91,1.91,0,0,0-3.18,0,3.73,3.73,0,0,1-3.14,1.71h-.67a3.73,3.73,0,0,1-3.14-1.72,1.91,1.91,0,0,0-3.18,0,3.73,3.73,0,0,1-3.14,1.71h-.67a3.74,3.74,0,0,1-3.14-1.71,1.91,1.91,0,0,0-3.18,0,3.73,3.73,0,0,1-3.14,1.72H42.6a3.73,3.73,0,0,1-3.14-1.71,1.92,1.92,0,0,0-3.19,0,3.71,3.71,0,0,1-3.13,1.71h-.67a3.73,3.73,0,0,1-3.14-1.71,1.92,1.92,0,0,0-3.19,0A3.71,3.71,0,0,1,23,45.05h-.68a3.73,3.73,0,0,1-3.14-1.72,1.91,1.91,0,0,0-3.18,0,3.71,3.71,0,0,1-3.13,1.71H12.2A3.73,3.73,0,0,1,8.47,41.32Zm34.8,46.76H20.81V53.27H43.27ZM87.53,94H8.47V90.08H87.53ZM45.27,88.08V52.27a1,1,0,0,0-1-1H19.81a1,1,0,0,0-1,1V88.08H13.32V47a5.65,5.65,0,0,0,4.28-2.47,5.72,5.72,0,0,0,4.73,2.5H23a5.72,5.72,0,0,0,4.73-2.5,5.71,5.71,0,0,0,4.73,2.5h.67a5.72,5.72,0,0,0,4.73-2.5,5.71,5.71,0,0,0,4.73,2.5h.67A5.76,5.76,0,0,0,48,44.56a5.75,5.75,0,0,0,4.73,2.49h.67a5.71,5.71,0,0,0,4.73-2.5,5.72,5.72,0,0,0,4.73,2.5h.67a5.71,5.71,0,0,0,4.73-2.5A5.72,5.72,0,0,0,73,47.05h.68a5.69,5.69,0,0,0,4.72-2.5A5.68,5.68,0,0,0,82.68,47V88.08Z"></path>
    <path d="M28.85,18h4.2v4.21a1,1,0,0,0,1,1h4.82a1,1,0,0,0,1-1V18h4.21a1,1,0,0,0,1-1V12.13a1,1,0,0,0-1-1H39.87V6.92a1,1,0,0,0-1-1H34.05a1,1,0,0,0-1,1v4.21h-4.2a1,1,0,0,0-1,1V17A1,1,0,0,0,28.85,18Zm1-4.82h4.2a1,1,0,0,0,1-1V7.92h2.82v4.21a1,1,0,0,0,1,1h4.21V16H38.87a1,1,0,0,0-1,1v4.21H35.05V17a1,1,0,0,0-1-1h-4.2Z"></path>
  </g>
</svg>
