<svg xmlns="http://www.w3.org/2000/svg" width="128" height="128" enable-background="new 0 0 128 128" viewBox="0 0 128 128" id="hospital">
  <linearGradient id="a" x1="12.343" x2="115.657" y1="64.005" y2="64.005" gradientUnits="userSpaceOnUse">
    <stop offset="0" stop-color="#ec2aff"></stop>
    <stop offset=".187" stop-color="#c936ff"></stop>
    <stop offset=".599" stop-color="#7153ff"></stop>
    <stop offset="1" stop-color="#1572ff"></stop>
  </linearGradient>
  <path fill="url(#a)" d="M64.001,48.561c-1.654,0-3-1.346-3-3v-4.081H56.92c-1.654,0-3-1.346-3-3s1.346-3,3-3h4.081v-4.081
				c0-1.654,1.346-3,3-3s3,1.346,3,3v4.081h4.079c1.654,0,3,1.346,3,3s-1.346,3-3,3h-4.079v4.081
				C67.001,47.215,65.655,48.561,64.001,48.561z M56.92,37.479c-0.552,0-1,0.449-1,1s0.448,1,1,1h5.081c0.553,0,1,0.448,1,1v5.081
				c0,0.551,0.448,1,1,1s1-0.449,1-1v-5.081c0-0.552,0.447-1,1-1h5.079c0.552,0,1-0.449,1-1s-0.448-1-1-1h-5.079
				c-0.553,0-1-0.448-1-1v-5.081c0-0.551-0.448-1-1-1s-1,0.449-1,1v5.081c0,0.552-0.447,1-1,1H56.92z"></path>
  <g>
    <linearGradient id="b" x1="12.343" x2="115.657" y1="64.005" y2="64.005" gradientUnits="userSpaceOnUse">
      <stop offset="0" stop-color="#ec2aff"></stop>
      <stop offset=".187" stop-color="#c936ff"></stop>
      <stop offset=".599" stop-color="#7153ff"></stop>
      <stop offset="1" stop-color="#1572ff"></stop>
    </linearGradient>
    <path fill="url(#b)" d="M112.655,112.65H15.345c-1.654,0-3-1.346-3-3v-9.365c0-1.654,1.346-3,3-3h11.768V55.338H15.345
				c-1.316,0-2.466-0.843-2.862-2.099c-0.395-1.257,0.065-2.607,1.145-3.361L62.283,15.89c1.012-0.707,2.423-0.707,3.437,0
				l48.653,33.988c1.079,0.753,1.539,2.104,1.145,3.36c-0.396,1.256-1.546,2.1-2.862,2.1h-11.768v41.947h11.768c1.654,0,3,1.346,3,3
				v9.365C115.655,111.305,114.31,112.65,112.655,112.65z M15.345,99.285c-0.552,0-1,0.449-1,1v9.365c0,0.551,0.448,1,1,1h97.311
				c0.552,0,1-0.449,1-1v-9.365c0-0.551-0.448-1-1-1H99.888c-0.553,0-1-0.448-1-1V54.338c0-0.552,0.447-1,1-1h12.768
				c0.438,0,0.822-0.281,0.954-0.7c0.132-0.418-0.021-0.868-0.381-1.12L64.574,17.53c-0.338-0.236-0.81-0.236-1.146,0L14.771,51.518
				c-0.359,0.251-0.513,0.702-0.381,1.121c0.132,0.418,0.516,0.699,0.954,0.699h12.768c0.553,0,1,0.448,1,1v43.947
				c0,0.552-0.447,1-1,1H15.345z M110.655,108.65H17.345c-0.553,0-1-0.448-1-1v-5.365c0-0.552,0.447-1,1-1h93.311
				c0.553,0,1,0.448,1,1v5.365C111.655,108.203,111.208,108.65,110.655,108.65z M18.345,106.65h91.311v-3.365H18.345V106.65z
				 M95.888,99.285h-10.87c-0.553,0-1-0.448-1-1V66.094c0-0.551-0.448-1-1-1H44.982c-0.552,0-1,0.449-1,1v32.191
				c0,0.552-0.447,1-1,1h-10.87c-0.553,0-1-0.448-1-1V54.338c0-0.552,0.447-1,1-1h63.775c0.553,0,1,0.448,1,1v43.947
				C96.888,98.837,96.44,99.285,95.888,99.285z M86.018,97.285h8.87V55.338H33.112v41.947h8.87V66.094c0-1.654,1.346-3,3-3h38.035
				c1.654,0,3,1.346,3,3V97.285z M81.018,99.285H66.001c-0.553,0-1-0.448-1-1V68.094c0-0.552,0.447-1,1-1h15.017
				c0.553,0,1,0.448,1,1v30.191C82.018,98.837,81.57,99.285,81.018,99.285z M67.001,97.285h13.017V69.094H67.001V97.285z
				 M62.001,99.285H46.982c-0.553,0-1-0.448-1-1V68.094c0-0.552,0.447-1,1-1h15.019c0.553,0,1,0.448,1,1v30.191
				C63.001,98.837,62.554,99.285,62.001,99.285z M47.982,97.285h13.019V69.094H47.982V97.285z M106.3,51.338H21.7
				c-0.437,0-0.823-0.283-0.954-0.7s0.023-0.87,0.382-1.12l42.301-29.549c0.344-0.24,0.801-0.24,1.145,0l42.299,29.549
				c0.358,0.25,0.513,0.704,0.382,1.12S106.736,51.338,106.3,51.338z M24.878,49.338h78.244L64.001,22.009L24.878,49.338z"></path>
  </g>
</svg>
