<svg xmlns="http://www.w3.org/2000/svg" width="163.839" height="163.839" fill-rule="evenodd" clip-rule="evenodd" image-rendering="optimizeQuality" shape-rendering="geometricPrecision" text-rendering="geometricPrecision" viewBox="0 0 1707 1707" id="innovation">
  <defs>
    <linearGradient id="a" x1="-1.551" x2="1708.21" y1="140.925" y2="1565.74" gradientUnits="userSpaceOnUse">
      <stop offset="0" stop-color="#08b6ff"></stop>
      <stop offset=".012" stop-color="#2790ff"></stop>
      <stop offset=".259" stop-color="#47c7ff"></stop>
      <stop offset=".478" stop-color="#4cc9ff"></stop>
      <stop offset=".8" stop-color="#4a9eff"></stop>
      <stop offset=".929" stop-color="#466aff"></stop>
      <stop offset="1" stop-color="#466aff"></stop>
    </linearGradient>
  </defs>
  <path fill="url(#a)" d="M600 1333c-10,-95 -50,-184 -114,-253 -90,-98 -137,-226 -131,-359 5,-129 59,-250 152,-340 93,-91 216,-141 345,-142l3 0c277,0 501,225 501,502 0,124 -45,243 -129,336 -66,72 -106,162 -116,256 -1,0 -3,0 -4,0l-507 0zm312 374l-134 0c-48,0 -89,-29 -108,-69l350 0c-19,40 -61,69 -108,69zm131 -103l-396 0c-31,0 -55,-24 -55,-55l0 -14 506 0 0 14c0,31 -25,55 -55,55zm64 -102l-525 0c-30,0 -55,-24 -55,-55l0 -25c0,-31 25,-55 55,-55l525 0c30,0 55,24 55,55l0 25c0,31 -25,55 -55,55zm-877 -381c-5,0 -11,-3 -14,-7 -5,-8 -3,-18 5,-24l118 -79c8,-6 18,-4 23,4 5,8 3,18 -4,23l-119 80c-2,2 -6,3 -9,3zm-97 -363c-9,0 -17,-8 -17,-17 0,-9 7,-16 16,-17l143 -3c9,-1 17,7 17,16 0,9 -7,17 -16,17l-143 4c0,0 0,0 0,0zm214 -289c-3,0 -5,-1 -8,-2l-123 -72c-8,-5 -11,-15 -6,-23 5,-8 15,-11 23,-6l123 72c8,5 10,15 6,23 -3,5 -9,8 -15,8zm214 -221c-6,0 -11,-3 -14,-8l-70 -125c-4,-8 -1,-18 7,-23 8,-4 18,-1 23,7l69 125c4,8 1,18 -7,22 -2,2 -5,2 -8,2zm916 870c-4,0 -7,-1 -10,-3l-118 -80c-8,-5 -10,-16 -5,-23 6,-8 16,-10 24,-5l118 80c8,5 10,16 4,23 -3,5 -8,8 -13,8zm97 -364c0,0 0,0 0,0l-143 -4c-9,0 -16,-7 -16,-17 0,-9 8,-16 17,-16l143 4c9,0 16,8 16,17 0,9 -8,16 -17,16zm-215 -288c-5,0 -11,-3 -14,-8 -5,-8 -2,-19 6,-23l123 -73c8,-4 18,-2 23,6 4,8 2,18 -6,23l-123 72c-3,2 -6,3 -9,3zm-214 -221c-2,0 -5,-1 -8,-2 -8,-4 -11,-15 -6,-23l69 -125c4,-8 15,-11 23,-6 8,4 11,14 6,23l-69 124c-3,6 -9,9 -15,9zm-298 -69c-9,0 -17,-7 -17,-17l0 -142c0,-10 8,-17 17,-17 9,0 16,7 16,17l0 142c0,10 -7,17 -16,17zm6 735c-95,0 -173,-78 -173,-173 0,-96 78,-174 173,-174 96,0 174,78 174,174 0,95 -78,173 -174,173zm-47 135c-5,0 -9,0 -13,-2l-81 -28c-10,-3 -18,-10 -23,-20 -4,-9 -5,-20 -2,-30l11 -31c-7,-6 -15,-13 -22,-20l-30 15c-5,3 -11,4 -17,4 -15,0 -29,-9 -35,-22l-38 -77c-9,-20 -1,-43 18,-53l30 -15c-1,-9 -1,-19 -1,-29l-32 -11c-20,-7 -31,-29 -24,-50l28 -81c5,-16 20,-26 37,-26 4,0 9,0 13,2l31 11c6,-8 13,-15 20,-22l-15 -30c-5,-10 -5,-20 -2,-30 4,-10 11,-18 20,-23l77 -37c6,-3 12,-4 18,-4 14,0 28,8 35,22l15 30c9,-1 19,-2 29,-2l11 -32c5,-15 20,-26 37,-26 4,0 9,1 13,2l81 28c10,3 18,11 22,20 5,9 6,20 2,30l-11 32c8,6 15,12 22,19l30 -15c6,-2 12,-4 18,-4 14,0 28,9 35,23l37 77c5,9 6,20 2,30 -3,10 -10,18 -20,22l-30 15c1,10 2,19 2,29l32 11c20,7 31,30 24,50l-28 81c-5,16 -20,27 -37,27l0 0c-5,0 -9,-1 -13,-2l-32 -11c-6,7 -12,15 -19,22l15 30c9,19 1,43 -19,52l-77 38c-5,2 -11,4 -17,4 -15,0 -29,-9 -35,-22l-15 -30c-10,1 -19,1 -29,1l-11 32c-6,16 -21,26 -37,26zm-126 -168c5,0 9,2 12,6 11,11 23,22 36,31 6,4 8,12 6,19l-15 43c-1,2 0,4 0,5 1,1 2,2 4,3l81 28c0,0 1,0 2,0 2,0 4,-1 5,-4l15 -43c3,-7 9,-12 17,-11 16,1 32,0 47,-3 7,-1 14,2 18,9l20 41c1,3 3,3 5,3 1,0 2,0 3,0l77 -38c3,-1 4,-5 3,-8l-20 -41c-4,-6 -2,-14 3,-19 12,-11 23,-23 32,-36 4,-6 12,-8 19,-6l43 15c0,0 1,0 2,0 2,0 5,-1 6,-4l27 -81c2,-3 0,-6 -3,-7l-43 -15c-7,-3 -12,-9 -12,-17 1,-16 0,-32 -2,-47 -2,-7 2,-14 9,-18l41 -20c2,-1 2,-2 3,-3 0,-1 0,-3 -1,-5l-37 -77c-1,-2 -4,-3 -5,-3 -1,0 -2,0 -3,0l-41 20c-7,4 -15,2 -20,-3 -10,-12 -22,-23 -35,-32 -6,-4 -9,-12 -6,-19l15 -43c0,-2 0,-4 -1,-4 0,-1 -1,-3 -3,-4l-81 -27c-1,-1 -1,-1 -2,-1 -2,0 -5,1 -6,4l-15 43c-2,7 -9,12 -16,12 -16,-1 -32,0 -47,2 -8,2 -15,-2 -18,-9l-20 -41c-1,-2 -4,-3 -5,-3 -1,0 -2,0 -3,1l-77 37c-2,1 -3,3 -3,3 -1,1 -1,3 0,5l20 41c3,7 2,15 -4,20 -11,10 -22,22 -31,35 -4,6 -12,9 -19,6l-43 -15c-1,0 -1,0 -2,0 -2,0 -5,1 -6,4l-28 81c-1,3 1,7 4,8l43 15c7,2 12,9 11,16 -1,16 0,32 3,47 1,8 -2,15 -9,18l-41 20c-3,1 -4,5 -3,8l38 77c1,3 3,4 5,4 1,0 2,-1 3,-1l41 -20c2,-1 5,-2 7,-2zm173 -280c-77,0 -140,63 -140,140 0,77 63,140 140,140 77,0 140,-63 140,-140 0,-77 -63,-140 -140,-140z"></path>
</svg>
