<svg xmlns="http://www.w3.org/2000/svg" width="163.839" height="163.839" fill-rule="evenodd" clip-rule="evenodd" image-rendering="optimizeQuality" shape-rendering="geometricPrecision" text-rendering="geometricPrecision" viewBox="0 0 1707 1707" id="research">
  <defs>
    <linearGradient id="a" x1="-56.807" x2="1763.46" y1="94.882" y2="1611.78" gradientUnits="userSpaceOnUse">
      <stop offset="0" stop-color="#08b6ff"></stop>
      <stop offset=".012" stop-color="#2790ff"></stop>
      <stop offset=".259" stop-color="#47c7ff"></stop>
      <stop offset=".478" stop-color="#4cc9ff"></stop>
      <stop offset=".8" stop-color="#4a9eff"></stop>
      <stop offset=".929" stop-color="#466aff"></stop>
      <stop offset="1" stop-color="#466aff"></stop>
    </linearGradient>
  </defs>
  <path fill="url(#a)" d="M729 1232c-142,0 -275,-55 -376,-156 -44,-44 -80,-95 -105,-149l-57 53c7,14 11,29 11,45 0,56 -45,101 -101,101 -56,0 -101,-45 -101,-101 0,-56 45,-101 101,-101 27,0 52,11 71,29l61 -59c-23,-61 -36,-127 -36,-194 0,-142 55,-276 156,-377 101,-100 234,-155 376,-155 142,0 276,55 377,155 8,8 15,17 23,25l82 -140c-24,-19 -39,-48 -39,-80 0,-56 45,-101 101,-101 55,0 101,45 101,101 0,55 -46,101 -101,101 -11,0 -22,-2 -32,-6l-90 153c161,208 146,509 -45,700 -101,101 -235,156 -377,156zm847 448c-23,0 -44,-9 -60,-25l-36 -36 166 -165 36 36c33,33 33,86 0,119l-46 46c-16,16 -37,25 -60,25zm-119 -84l-217 -217 166 -165 216 216 -165 166zm-240 -240l-36 -36c-26,-26 -32,-66 -16,-97l-82 -82c16,-13 31,-27 46,-41 15,-15 29,-31 42,-47l82 83c11,-4 22,-7 34,-7 22,0 43,9 59,25l36 36 -165 166zm-488 -285c-99,0 -192,-38 -262,-108 -71,-71 -109,-164 -109,-263 0,-99 38,-193 109,-263 70,-70 163,-109 262,-109 100,0 193,39 263,109 70,70 109,164 109,263 0,99 -39,192 -109,263 -70,70 -163,108 -263,108zm194 -239c-50,0 -90,-40 -90,-90 0,-1 0,-3 0,-4l-228 -76c-12,36 -46,61 -85,61 -17,0 -32,-5 -46,-12l-73 70c14,59 45,114 89,158 64,64 149,99 239,99 91,0 176,-35 239,-99 64,-64 100,-149 100,-239 0,-47 -10,-92 -28,-134l-62 105c3,3 6,5 9,8 17,17 26,39 26,63 0,50 -40,90 -90,90zm-474 -143c-12,-16 -19,-35 -19,-56 0,-50 40,-90 90,-90 48,0 88,38 90,86l231 76c14,-31 46,-53 82,-53l0 0c9,0 17,1 26,4l73 -126c-14,-25 -32,-48 -54,-69 -63,-64 -148,-99 -239,-99 -90,0 -175,35 -239,99 -64,63 -99,148 -99,239 0,14 1,28 3,41l55 -52zm474 -3c0,0 0,0 0,0 -27,0 -50,18 -55,44l0 0c-1,4 -2,8 -2,12 0,32 26,57 57,57 31,0 57,-25 57,-57 0,-15 -6,-29 -17,-40 -4,-4 -9,-8 -14,-10 0,0 -1,0 -1,-1l0 0 0 0c-8,-3 -16,-5 -25,-5zm-403 -110c-32,0 -57,26 -57,57 0,31 25,57 57,57 29,0 53,-22 56,-50l0 -1 0 0 0 0c0,-2 1,-4 1,-6 0,-31 -26,-57 -57,-57z"></path>
</svg>
